PathFileType	4	(X/Y/Z)	Patient4_TMGait_0pt7_02_right_33.trc.trc
DataRate	CameraRate	NumFrames	NumMarkers	Units	OrigDataRate	OrigDataStartFrame	OrigNumFrames
88.050314465409	88.050314465409	4	33	mm	88.050314465409	89	       141
Frame#	Time	Sacral			L.Shoulder			Chest			R.Shoulder			Neck			R.ASIS			L.ASIS			R.Thigh.Superior			R.Thigh.Lateral			R.Thigh.Inferior			R.Patella			L.Thigh.Superior			L.Thigh.Lateral			L.Thigh.Inferior			L.Patella			L.Shank.Superior			L.Shank.Lateral			L.Shank.Inferior			R.Shank.Superior			R.Shank.Lateral			R.Shank.Inferior			R.Heel			R.Midfoot.Superior			R.Midfoot.Lateral			R.Toe			L.Heel			L.Midfoot.Lateral			L.Midfoot.Superior			L.Toe			L.Elbow			L.Wrist			R.Elbow			R.Wrist			
		X1	Y1	Z1	X2	Y2	Z2	X3	Y3	Z3	X4	Y4	Z4	X5	Y5	Z5	X6	Y6	Z6	X7	Y7	Z7	X8	Y8	Z8	X9	Y9	Z9	X10	Y10	Z10	X11	Y11	Z11	X12	Y12	Z12	X13	Y13	Z13	X14	Y14	Z14	X15	Y15	Z15	X16	Y16	Z16	X17	Y17	Z17	X18	Y18	Z18	X19	Y19	Z19	X20	Y20	Z20	X21	Y21	Z21	X22	Y22	Z22	X23	Y23	Z23	X24	Y24	Z24	X25	Y25	Z25	X26	Y26	Z26	X27	Y27	Z27	X28	Y28	Z28	X29	Y29	Z29	X30	Y30	Z30	X31	Y31	Z31	X32	Y32	Z32	X33	Y33	Z33	

89	38.179428571429	890.273216809169	1017.417066467432	448.124144128334	1075.703593488448	1421.464133857151	236.558714373834	1194.433633530942	1350.288841784313	386.323516902111	1140.546014434679	1440.453908873922	562.974359112971	1101.378239954132	1487.914576780949	386.148414971675	1113.923672697951	936.786271899677	553.981744718151	1092.681626663446	948.993596880204	281.483180433768	1150.921453027197	734.495836541247	533.117581388130	1072.180779120112	626.601439065375	601.209543531090	1149.822848244943	566.052405225072	523.657342357023	1138.015688779823	455.740987090129	543.925073361336	1159.443685591135	759.250930504095	315.377656983715	1086.649675839944	636.047780590584	254.673573658912	1181.375289334836	567.730887164626	317.997777588419	1191.058339624765	496.425795475199	325.378506022568	1163.165496455339	421.975492170800	316.158575658067	1075.594849844884	307.451817939141	261.605294763713	1127.611549807969	195.307634928699	330.724324223765	1055.990926001272	393.847347451303	552.335704853636	933.394925295580	363.469163690548	615.678874163724	911.403763873856	255.579063954298	566.872280004304	704.607344139995	198.088105028507	541.604947727183	875.576856114711	145.436647227505	587.200733864726	765.184572382911	145.881329638727	619.354430015820	940.227394129406	37.155041150078	620.045574378053	1000.773498966988	38.626688128134	366.545490320148	1076.895642729985	35.947861470704	287.768907792983	1158.565467360782	97.119107538931	317.047957284200	1288.409022592376	45.081506486674	292.433205521397	936.132859418421	1090.513121892814	159.339171920802	928.168932480309	829.052672902640	176.174197735496	1250.692183411770	1114.981464606617	664.213835379261	1423.110216201854	1211.123464134486	513.118436478849	
90	38.190785714286	888.781264310132	1018.185746469289	445.979304778447	1075.481081891966	1422.563860584406	234.824863880465	1193.215881076676	1351.678267714467	385.527187296409	1137.740970375146	1441.808430828522	561.840359200667	1099.839436352505	1489.089095885242	384.508625387422	1112.434782352553	938.132576509538	552.639473903739	1092.077569555438	950.079867599744	280.195826417569	1154.165741843817	738.271369028785	530.904824157939	1079.084902496779	628.740213812537	599.555860706092	1157.914010536685	569.877986013646	521.531192179183	1148.226063087147	458.543613045031	542.192200712106	1157.149276710659	758.489045689936	314.319720572336	1083.048120160822	636.187337314908	253.889368935978	1176.504405989072	566.902224963058	317.922399774788	1185.261011192940	495.672350945390	325.481132471206	1157.009786627488	421.545326461619	316.075713957801	1069.044927055986	307.384611250649	261.442713410085	1120.232018490592	195.089458253347	330.889967216910	1065.085270299253	396.676137623919	550.744157219823	941.359944194299	369.265818078013	613.454037792738	917.463802546142	261.564318857012	565.507955309680	710.137445417416	209.748455100693	538.978140670848	878.872431431540	151.355111769969	586.334653507583	768.178570063814	155.687703783643	617.452728095551	939.438694128633	39.928523526795	620.221526654666	992.783008803666	38.660412122843	366.545824537402	1068.893432190442	35.947086424753	287.794142291705	1150.672910185187	96.979526622116	317.122814886167	1280.465108859558	44.668232752094	292.425711963046	942.288120366405	1088.877742205885	155.142018692373	946.687778520261	827.037767164294	170.314594654705	1239.597445925380	1113.293717058263	665.173434138177	1420.683731164934	1194.037562254336	514.472077322420	
91	38.202142857143	887.164306136938	1018.817434949228	443.886376366505	1075.172821855006	1423.585647349463	233.274253278516	1191.886782083116	1352.936051372153	384.912513078749	1134.788813535467	1442.961905628959	560.902347977674	1098.219291256005	1490.138124663808	383.094648085646	1110.827097994758	939.408800476899	551.371376430755	1091.404604913394	951.020784167269	278.936398275344	1157.129385508226	742.180486315886	528.528712254861	1085.992621613205	631.128216035938	597.946607063350	1165.795299547534	574.044066462333	519.293945082519	1158.485900428066	461.762729462918	540.325990271402	1154.948320116099	757.771337255082	313.339035774901	1079.514971916246	636.281512339787	253.171727200167	1171.770465957127	566.079846779081	317.815834224373	1179.634545809440	494.924173123833	325.601280017815	1151.026026038516	421.099620436887	316.020720022415	1062.634336835447	307.333367221414	261.279835581844	1112.932646823265	194.866557560988	331.062473429254	1074.449002659584	399.737746240871	549.134397006526	949.839672477882	374.816251972485	611.339209398163	924.356195556352	267.303685020288	564.185130222852	716.733991134258	220.210821396770	536.629230459264	883.400863182449	157.061714215753	585.433733170309	772.584636392937	164.657893545700	615.704420157799	940.481635569036	43.237136083909	620.220219660997	984.793326551479	38.706219886283	366.536885650343	1060.898280991471	35.962217967588	287.814452436617	1142.783897923772	96.859602653428	317.205166889699	1272.526470855313	44.281393669007	292.425854380013	948.834526614703	1087.232195924027	150.915696935611	965.939485112736	825.666314812170	164.447429942845	1228.337407806743	1111.649406518354	666.236262885040	1417.805143563817	1175.513589126362	516.741118046938	
92	38.213500000000	885.457206335421	1019.330260289667	441.833652882535	1074.780827340665	1424.531948766107	231.901902666641	1190.459477581733	1354.065120829484	384.465235930577	1131.719020899780	1443.924157521753	560.140639344283	1096.542432803517	1491.062842144429	381.894729716333	1109.102940558620	940.628520674358	550.192592531597	1090.686059461521	951.832691565995	277.725940546027	1159.808668012643	746.219007873930	526.032544364468	1092.855860849987	633.771663141997	596.396039634971	1173.447858034314	578.537019387191	516.990690443799	1168.758555181094	465.390144406714	538.375184238465	1152.839925857793	757.076203395883	312.422102994312	1076.042094378909	636.324118295502	252.519626785214	1167.161306394246	565.251853375597	317.687412490674	1174.161347102720	494.171702849462	325.742303879757	1145.195575116210	420.631733012943	315.991919015337	1056.346407921643	307.290120683073	261.119840485985	1105.708020658205	194.634440691617	331.235930938029	1084.052504185597	403.030836484432	547.534843153422	958.801381491511	380.047272856857	609.374730600747	932.085249609538	272.698916559327	562.922371833639	724.342799579657	229.280853599467	534.620653776053	889.236998837723	162.418391013125	584.507331267917	778.426967256314	172.583448510990	614.146919165401	943.533632597186	46.905740855108	620.002218951570	976.805648893005	38.757137434893	366.520457018656	1052.911791494416	35.988729739065	287.829564471922	1134.894912581675	96.761242003713	317.292106471721	1264.592816371865	43.934229338770	292.430035506661	955.788886339986	1085.609368078893	146.672399622044	985.858556332209	825.023823109666	158.650932135195	1217.028055624071	1110.063134904441	667.366482628734	1414.313308169543	1155.655312156088	519.982876031666	
